# xmcd
#
# Track frame offsets:
#	150
#	14415
#	28150
#	41040
#	53365
#	66717
#	79892
#	92190
#	103657
#	115087
#	127812
#	139505
#	153947
#	166292
#	180620
#	193847
#	204915
#	218572
#	230405
#
# Disc length: 3257 seconds
#
# Revision: 1
# Processed by: cddbd v1.5.2PL0 Copyright (c) Steve Scherf et al.
# Submitted via: CDex 1.51
#
DISCID=000cb713
DTITLE=Various Artist - First Steps
DYEAR=1900
DGENRE=Jazz
TTITLE0=Red Cross - Tiny Grimes Quintette W/ Charlie Parker
TTITLE1=Shaw 'nuff - Dizzie Gillespie All Star Quintette W/ Charlie Parker
TTITLE2=Jim Dawgs - Ike Quebec All Stars
TTITLE3=Laura - Erroll Garner Trio
TTITLE4=Blow Mr. Dexter - Dexter Gordon
TTITLE5=How High the Moon - Don Byas
TTITLE6=And the Angels Swing - Stan Getz Quartet
TTITLE7=Fool's Fancy - the Be Bop Boys W/Kenny Dorham and Sonny Stitt
TTITLE8=Moody Speaks - Ray Brown's All Stars W/James Moody
TTITLE9=Calling Dr. Jazz - Eddie Davis and His Beboppers W/ Fats Navarro
TTITLE10=Serge's Urge - Serge Chaloff Sextette
TTITLE11=El Sino - Lee Parker's All Stars W/Gene Ammons and Howard McGhee
TTITLE12=Half Nelson - Miles Davis All Stars
TTITLE13=Life With Feather - George Shearing Quintet
TTITLE14=I'll Remember April - Harold Land
TTITLE15=Bee Jay - Jay Jay Johnson W/Sonny Rollins
TTITLE16=True Blues - Milt Jackson
TTITLE17=Mean to Me - Frank Rosolino
TTITLE18=Everything Happens to Me - Art Pepper Quartet
EXTD=
EXTT0=
EXTT1=
EXTT2=
EXTT3=
EXTT4=
EXTT5=
EXTT6=
EXTT7=
EXTT8=
EXTT9=
EXTT10=
EXTT11=
EXTT12=
EXTT13=
EXTT14=
EXTT15=
EXTT16=
EXTT17=
EXTT18=
PLAYORDER=
